<svg xmlns="http://www.w3.org/2000/svg" viewBox="0 0 62 62" fill="none" stroke="currentColor" stroke-width="2" stroke-linecap="round" stroke-linejoin="round">
<circle cx="31" cy="31" r="29"></circle>
            <path d="M36.48 31.05l8.34-7.03M27.18 28.36l6.71 3.04M17.52 37.02l7.3-8.28"></path>
            <path d="M15.220000000000002,38.05a1.38,1.38 0 1,0 2.76,0a1.38,1.38 0 1,0 -2.76,0"></path>
            <path d="M24.57,27.6a1.38,1.38 0 1,0 2.76,0a1.38,1.38 0 1,0 -2.76,0"></path>
            <path d="M33.919999999999995,32a1.38,1.38 0 1,0 2.76,0a1.38,1.38 0 1,0 -2.76,0"></path>
            <path d="M44.37,23.06a1.38,1.38 0 1,0 2.76,0a1.38,1.38 0 1,0 -2.76,0"></path>
</svg>