<svg width="101" height="31" viewBox="0 0 101 31" fill="none" xmlns="http://www.w3.org/2000/svg">
<path d="M0.219589 24.4395C0.886489 24.3012 1.48832 24.0084 2.12269 23.8294C2.32602 23.7724 2.47241 23.7074 2.26095 23.4796C2.65947 23.3738 3.04171 23.2843 3.41583 23.1867C3.50529 23.1623 3.63542 23.1623 3.64355 23.0321C3.65168 22.9101 3.52969 22.9264 3.45649 22.8938C3.31823 22.8288 3.39956 22.7718 3.47276 22.7393C3.9526 22.5196 4.44058 22.3 4.92855 22.0885C5.00175 22.0559 5.08308 22.0396 5.13187 21.9746C5.2132 21.8851 5.25387 21.82 5.09121 21.7712C4.60323 21.6248 4.18846 21.3319 3.72488 21.1285C3.64355 21.0878 3.58662 21.0309 3.65982 20.9414C3.74928 20.8194 3.69235 20.795 3.57035 20.7462C3.34263 20.6567 3.12304 20.5346 2.90345 20.4208C2.87092 20.4045 2.83026 20.3638 2.83839 20.3475C2.93599 20.0791 2.692 20.0953 2.57 20.0384C2.39921 19.957 2.30162 19.8188 2.18776 19.6886C2.0739 19.5584 1.91124 19.4771 1.75671 19.3794C1.62658 19.2981 1.60219 19.233 1.74045 19.1273C2.05763 18.8995 2.35855 18.6473 2.67573 18.4195C2.83839 18.3056 2.83026 18.2405 2.70013 18.0941C2.43988 17.8175 2.21216 17.5084 1.9763 17.2074C1.94377 17.1586 1.87057 17.0853 1.9275 17.0447C2.14709 16.8575 1.93564 16.7762 1.83804 16.6704C1.60219 16.4183 1.3582 16.1661 1.12234 15.9139C1.02475 15.8081 0.992217 15.7105 1.18741 15.6942C1.39073 15.6698 1.56152 15.5397 1.77298 15.5071C1.91124 15.4908 1.87057 15.377 1.82991 15.2956C1.73231 15.1004 1.61845 14.9051 1.51272 14.7099C1.45579 14.5878 1.34193 14.4739 1.48832 14.3275C1.54526 14.2706 1.50459 14.1974 1.44766 14.1404C1.22807 13.9126 1.11421 13.6198 0.910887 13.3838C0.813292 13.2699 0.870223 13.2293 0.992217 13.2211C1.08168 13.213 1.17114 13.213 1.2606 13.1967C1.49646 13.1642 1.55339 13.0422 1.44766 12.8225C1.29313 12.4971 1.14674 12.1636 0.992217 11.83C0.927153 11.6917 0.886489 11.5941 1.10608 11.6022C1.29313 11.6104 1.2606 11.5127 1.18741 11.407C1.10608 11.285 1.01662 11.1629 0.927153 11.0409C0.845824 10.927 0.72383 10.8294 0.910887 10.6911C1.00035 10.626 0.894622 10.5691 0.86209 10.5121C0.577438 10.0077 0.374114 9.45455 0 8.9095C0.341583 9.00712 0.52864 9.22677 0.748229 9.36507C1.10608 9.59285 1.48019 9.79623 1.80551 10.0728C1.85431 10.1135 1.96817 10.1786 1.99257 10.1542C2.24469 9.93453 2.31788 10.203 2.45614 10.3087C2.53747 10.3738 2.6188 10.447 2.68386 10.5284C2.81399 10.683 2.91972 10.8457 3.00918 10.4959C3.04171 10.3738 3.14744 10.3982 3.22064 10.4796C3.3345 10.6016 3.44836 10.7236 3.56222 10.8538C3.65168 10.9677 3.74928 11.049 3.9038 11.0816C4.09899 11.1223 4.15592 11.3175 4.26165 11.4558C4.41618 11.651 4.50564 11.651 4.6195 11.4233C4.65203 11.3582 4.68456 11.3012 4.7171 11.2362C4.79029 11.0897 4.86349 11.0979 4.97735 11.2199C5.25387 11.5127 5.53852 11.7893 5.83131 12.0659C5.92077 12.1554 6.01836 12.2612 6.09969 12.0497C6.14036 11.9358 6.22169 11.9765 6.28675 12.0415C6.49007 12.2205 6.70153 12.4076 6.87232 12.6191C7.04311 12.8306 7.14884 12.8144 7.23017 12.5622C7.29523 12.3669 7.38469 12.3669 7.51482 12.489C7.94587 12.8713 8.37691 13.2537 8.80796 13.636C8.86489 13.6848 8.92182 13.7825 9.00315 13.7174C9.09261 13.6523 9.04381 13.5547 9.00315 13.4815C8.97061 13.4245 8.92995 13.3757 8.91368 13.3188C8.87302 13.1967 8.86489 13.0747 9.06008 13.1072C9.12514 13.1154 9.20647 13.1479 9.239 13.0503C9.2634 12.9689 9.20647 12.9201 9.15767 12.8632C9.03568 12.733 8.91368 12.611 8.78356 12.4808C8.69409 12.3913 8.60463 12.3019 8.70223 12.1636C8.74289 12.1066 8.71036 12.0497 8.6697 11.9927C8.55583 11.8463 8.45824 11.6836 8.35251 11.529C8.26305 11.407 8.10039 11.2931 8.36878 11.1711C8.46637 11.1304 8.40944 11.0246 8.36065 10.9596C8.15732 10.683 8.10852 10.3413 7.91333 10.0647C7.8564 9.98334 7.91333 9.92639 7.9784 9.90199C8.14106 9.83691 8.08413 9.75555 8.01906 9.6498C7.76694 9.28372 7.66121 8.84442 7.42536 8.46206C7.40096 8.42139 7.39283 8.38071 7.42536 8.34004C7.46602 8.29122 7.50669 8.32377 7.54735 8.34004C8.10852 8.48647 8.67783 8.6329 9.239 8.77934C9.41792 8.82815 9.50739 8.81188 9.46672 8.58409C9.43419 8.35631 9.62938 8.43766 9.71884 8.4702C9.98723 8.54342 10.2394 8.64104 10.4996 8.73052C10.8737 8.86069 10.8737 8.86882 10.8575 8.47833C10.8493 8.16106 10.8087 7.84379 10.7273 7.53466C10.7761 7.52652 10.7924 7.51025 10.8087 7.51838C11.1828 7.69736 11.1909 7.68922 11.1746 7.2906C11.1665 7.11976 11.1421 6.96519 11.321 6.84317C11.4349 6.76995 11.3536 6.60725 11.3536 6.48522C11.3536 5.88322 11.3536 5.88322 11.931 5.9483C12.4271 6.00524 12.4108 5.99711 12.5491 5.51713C12.6467 5.15919 12.6386 4.77684 12.7687 4.42702C12.8256 4.27246 12.8582 4.21551 12.9801 4.36194C13.0289 4.41889 13.0777 4.47583 13.1591 4.44329C13.2648 4.40262 13.216 4.305 13.216 4.23178C13.216 4.14229 13.1997 4.05281 13.1916 3.96332C13.1916 3.88197 13.1835 3.76808 13.2729 3.75994C13.5332 3.7274 13.4844 3.54029 13.4763 3.37759C13.46 3.22302 13.4437 3.09286 13.6714 3.18234C13.8016 3.23929 13.826 3.15794 13.826 3.05218C13.8178 2.93015 13.8097 2.79999 13.8097 2.67796C13.8097 2.60475 13.8016 2.51526 13.8422 2.47458C14.2977 1.9702 14.2733 1.29499 14.501 0.709254C14.5173 0.668579 14.5173 0.619768 14.5417 0.579092C14.5579 0.538416 14.5742 0.48147 14.6311 0.505875C14.6555 0.514011 14.6718 0.554686 14.6799 0.587227C14.6881 0.652308 14.6881 0.709254 14.6881 0.774336C14.6718 1.7831 14.6555 2.78372 14.6393 3.79248C14.6393 3.84943 14.6474 3.93078 14.5823 3.95518C14.5091 3.98772 14.4522 3.93078 14.3953 3.88197C14.2733 3.77621 14.1676 3.63791 13.9805 3.63791C13.9805 3.84943 14.1594 3.92264 14.2814 4.0284C14.4766 4.19924 14.6881 4.35381 14.6149 4.66294C14.5986 4.71989 14.5986 4.77683 14.5417 4.79311C14.4847 4.81751 14.4359 4.7687 14.4115 4.72802C14.3221 4.57346 14.1513 4.54092 14.0049 4.47583C14.0862 4.67921 14.2407 4.82565 14.4197 4.92327C14.5742 5.00462 14.6067 5.11038 14.6149 5.26495C14.6149 5.45205 14.5742 5.63103 14.5905 5.82627C14.6067 6.00524 14.4929 5.95643 14.4034 5.88322C14.1432 5.65543 13.8829 5.41951 13.6226 5.19173C13.5576 5.13478 13.5007 5.03716 13.3787 5.06157C13.3624 5.18359 13.46 5.2324 13.5251 5.29749C13.8016 5.57408 14.07 5.85881 14.3546 6.12727C14.5254 6.28998 14.6067 6.46081 14.5579 6.69673C14.5254 6.84317 14.5335 6.99773 14.5335 7.1523C14.5335 7.20925 14.5742 7.28246 14.501 7.32314C14.4197 7.37195 14.3709 7.29874 14.3139 7.24992C13.9886 6.96519 13.6552 6.68046 13.3299 6.3876C13.2892 6.34692 13.2567 6.28998 13.1591 6.29811C13.1916 6.42014 13.2892 6.48522 13.3624 6.56657C13.6877 6.90825 14.0212 7.24179 14.3546 7.57533C14.4766 7.68922 14.5091 7.81125 14.5173 7.97395C14.5254 8.45393 14.4197 8.9339 14.4685 9.41388C14.4766 9.46269 14.4766 9.52777 14.4197 9.55217C14.3383 9.59285 14.3058 9.51963 14.2733 9.47082C13.5738 8.61663 12.8825 7.76244 12.1913 6.90825C12.1018 6.79436 12.0205 6.67233 11.8415 6.59911C11.8822 6.78622 11.9879 6.89198 12.0693 7.00587C12.8826 8.10412 13.6308 9.24304 14.3709 10.3982C14.4359 10.504 14.4603 10.6016 14.4522 10.7236C14.4197 11.0165 14.4034 11.3094 14.4115 11.6022C14.4115 11.6673 14.4522 11.7568 14.3627 11.7893C14.2977 11.8138 14.2489 11.7568 14.2001 11.7161C13.7365 11.3012 13.2648 10.8945 12.8094 10.4714C12.5735 10.2518 12.3539 10.024 12.1181 9.80437C12.0449 9.73115 11.9798 9.6498 11.8334 9.61726C11.9554 9.88572 12.1587 10.0321 12.3132 10.2193C12.9395 10.9514 13.582 11.6836 14.2163 12.4158C14.3139 12.5296 14.3627 12.6517 14.3546 12.8062C14.3221 13.8475 14.2733 14.8888 14.2814 15.9301C14.2814 15.9952 14.2977 16.0684 14.2245 16.0928C14.1513 16.1173 14.1269 16.0359 14.0862 15.9952C13.8504 15.7268 13.769 15.3932 13.6877 15.0597C13.5576 14.5146 13.4356 13.9696 13.3136 13.4245C13.2973 13.3513 13.3136 13.2374 13.2079 13.2455C13.1021 13.2537 13.1184 13.3676 13.1184 13.4408C13.1347 13.7825 13.1509 14.116 13.1672 14.4495C13.1672 14.5228 13.2079 14.6285 13.1021 14.6529C13.0208 14.6773 12.9801 14.596 12.9395 14.539C11.8497 13.1316 10.7355 11.7568 9.67005 10.3331C9.55618 10.1867 9.43419 10.0403 9.23087 9.90199C9.30406 10.1216 9.43419 10.2437 9.53179 10.382C10.1336 11.2362 10.7436 12.0903 11.3536 12.9445C11.3942 13.0015 11.5 13.0584 11.4349 13.1398C11.3861 13.2049 11.2722 13.1805 11.2153 13.1316C10.955 12.9201 10.6053 13.0991 10.3451 12.8876C10.402 13.0422 10.5159 13.1723 10.646 13.1886C10.8737 13.213 11.0526 13.3594 11.2722 13.392C11.6789 13.4489 11.9391 13.7174 12.1587 14.0428C12.7931 14.9865 13.4437 15.9139 14.0944 16.8494C14.2082 17.0121 14.2489 17.1748 14.2489 17.3701C14.2245 18.0127 14.1432 18.6473 14.1594 19.29C14.1594 19.3469 14.1594 19.4039 14.0944 19.4201C14.013 19.4364 13.9724 19.355 13.9236 19.3062C13.4925 18.8425 13.1021 18.3382 12.6223 17.9314C12.0693 17.4596 11.8822 16.9145 11.9879 16.223C12.0123 16.0847 12.0367 15.8162 11.9229 15.8162C11.7439 15.8081 11.8334 16.0522 11.7846 16.1823C11.7439 16.3044 11.7277 16.4427 11.7033 16.5728C11.687 16.646 11.7277 16.7518 11.6219 16.7762C11.5325 16.7925 11.4918 16.703 11.4349 16.646C10.955 16.1091 10.4915 15.5559 9.9791 15.0515C9.94657 15.019 9.89777 14.9865 9.8327 14.9377C9.81644 15.0841 9.9059 15.1329 9.96283 15.2061C10.9306 16.3776 11.8985 17.549 12.8663 18.7205C13.2485 19.1842 13.6226 19.6642 14.0049 20.1279C14.0944 20.2418 14.135 20.3557 14.135 20.494C14.135 21.4376 14.0944 22.3813 14.0212 23.3169C14.013 23.4633 14.0049 23.6016 14.0212 23.7399C14.0293 23.7968 14.0456 23.8701 13.9724 23.9026C13.8992 23.9351 13.8585 23.8863 13.8097 23.8457C13.6145 23.6504 13.4275 23.4552 13.2241 23.2599C13.1265 23.1704 13.1347 23.0565 13.1347 22.9426C13.1428 22.1942 13.1509 21.4458 13.1509 20.6973C13.1509 20.5835 13.2079 20.3719 13.0371 20.3719C12.9151 20.3719 12.9801 20.5835 12.9476 20.6973C12.8582 21.0878 12.8419 21.4865 12.7118 21.8688C12.6548 22.0315 12.6223 22.1942 12.6223 22.3651C12.6223 22.4301 12.6223 22.4952 12.5491 22.5196C12.4922 22.5359 12.4515 22.4952 12.4108 22.4545C12.175 22.2186 11.931 21.9746 11.6951 21.7305C11.5894 21.6166 11.5406 21.4946 11.5325 21.3238C11.5 20.6892 11.4918 20.0628 11.4837 19.4283C11.4837 19.3632 11.4756 19.3062 11.4674 19.2412C11.4593 19.2005 11.443 19.1517 11.3942 19.1435C11.3373 19.1354 11.3292 19.1923 11.321 19.233C11.3129 19.3225 11.2966 19.412 11.3048 19.5015C11.3292 19.9896 11.1584 20.4533 11.1421 20.9333C11.134 21.096 11.0364 21.0878 10.955 20.9902C10.7924 20.7868 10.5972 20.616 10.4183 20.437C10.3288 20.3475 10.3207 20.2336 10.3207 20.1197C10.3044 19.2412 10.1743 18.3626 10.1743 17.484C10.1743 17.3945 10.1824 17.2887 10.0848 17.2318C9.98723 17.2969 10.0116 17.3863 10.0198 17.4596C10.0523 18.1836 9.92217 18.8913 9.87337 19.6154C9.87337 19.6642 9.8815 19.7293 9.81644 19.7537C9.74324 19.7862 9.70258 19.7293 9.65378 19.6886C9.32846 19.355 8.99501 19.0134 8.6697 18.6798C8.60463 18.6147 8.55584 18.5497 8.53957 18.452C8.42571 17.7687 8.30371 17.0853 8.20612 16.402C8.15732 16.0522 8.01906 15.7105 8.02719 15.3525C8.02719 15.3037 8.01093 15.2549 7.96213 15.2468C7.88894 15.2387 7.87267 15.2956 7.86454 15.3525C7.8564 15.4583 7.84827 15.5641 7.8564 15.6698C7.9296 16.3206 7.84827 16.9633 7.87267 17.6141C7.87267 17.6711 7.86454 17.728 7.81574 17.7524C7.74254 17.7931 7.70188 17.728 7.66121 17.6792C7.60428 17.6141 7.56362 17.5246 7.49042 17.4758C6.72593 16.9877 6.62833 16.1905 6.5226 15.3932C6.47381 15.0434 6.39248 14.6936 6.32741 14.3275C6.18915 14.4089 6.22169 14.5228 6.22169 14.6122C6.22169 15.0353 6.22169 15.4664 6.22169 15.8976C6.22169 15.9627 6.26235 16.0522 6.16476 16.0766C6.08343 16.101 6.04276 16.0278 5.99396 15.9708C5.9045 15.8732 5.83131 15.7512 5.72558 15.678C5.34333 15.4014 5.2132 15.019 5.2376 14.5634C5.25387 14.238 5.2376 13.9045 5.2376 13.5791C5.2376 13.4977 5.262 13.3676 5.15627 13.3513C5.05868 13.335 5.07494 13.4652 5.05055 13.5384C4.95295 13.8557 4.90415 14.1811 4.91229 14.5146C4.91229 14.596 4.92855 14.7017 4.84722 14.7343C4.74149 14.7749 4.7171 14.6448 4.65203 14.5878C4.09899 14.0265 3.54595 13.4652 2.99292 12.9039C2.97665 12.9201 2.95225 12.9364 2.93599 12.9527C3.00918 13.034 3.07424 13.1235 3.14744 13.2049C3.64355 13.7499 4.14779 14.295 4.6439 14.8319C4.67643 14.8644 4.70896 14.897 4.68456 14.9458C4.65203 15.0027 4.5951 15.0027 4.5463 14.9946C4.26978 14.9539 4.0014 14.9214 3.72488 14.8807C3.54595 14.8563 3.36703 14.8563 3.19624 14.8726C3.14744 14.8726 3.07424 14.8888 3.06611 14.9458C3.05798 15.0353 3.13931 15.0271 3.19624 15.0434C3.80621 15.1573 4.41618 15.2631 5.02615 15.3688C5.12374 15.3851 5.18881 15.4258 5.25387 15.499C5.48972 15.743 5.71744 15.9871 5.9533 16.2311C6.0021 16.28 6.04276 16.3288 6.01023 16.3938C5.96957 16.4671 5.9045 16.4264 5.83944 16.4264C5.27013 16.402 4.70083 16.3857 4.13153 16.3613C4.03393 16.3613 3.93633 16.3613 3.83874 16.3694C3.78181 16.3776 3.69235 16.3613 3.70048 16.4508C3.70048 16.5321 3.78994 16.5403 3.84687 16.5321C4.17219 16.5159 4.47311 16.6379 4.79029 16.6786C5.40026 16.7518 5.99396 16.9064 6.5958 17.0121C6.669 17.0284 6.72593 17.0609 6.77472 17.1179C7.01058 17.3619 7.24643 17.606 7.48229 17.85C7.52295 17.8907 7.55549 17.9395 7.53922 17.9883C7.52295 18.0453 7.45789 18.0534 7.40909 18.0453C6.74219 17.9558 6.07529 18.0697 5.41653 17.9639C5.20507 17.9314 5.00175 17.8826 4.79029 17.85C4.6927 17.8338 4.58697 17.8256 4.46497 17.9395C4.73336 18.029 4.96108 18.1429 5.19694 18.1673C6.22982 18.2975 7.23017 18.5822 8.24678 18.7937C8.33625 18.81 8.41757 18.8507 8.48264 18.9157C8.77542 19.2249 9.06008 19.5422 9.35286 19.8513C9.39353 19.9001 9.43419 19.957 9.40979 20.0221C9.37726 20.1035 9.30406 20.0465 9.24713 20.0384C8.46637 19.9652 7.69375 19.892 6.91298 19.8106C6.31115 19.7537 5.71744 19.6479 5.11561 19.6154C4.82282 19.5991 4.53004 19.4283 4.21285 19.4933C4.15592 19.5015 4.08273 19.4771 4.05833 19.5584C4.06646 19.5666 4.06646 19.5828 4.07459 19.5828C4.53817 19.591 4.95295 19.835 5.41653 19.8432C5.84757 19.8513 6.27048 19.9815 6.70153 20.0384C7.58802 20.1686 8.46637 20.3394 9.35286 20.494C9.57245 20.5346 9.78391 20.5835 10.0035 20.6241C10.093 20.6404 10.158 20.6892 10.2231 20.7624C10.3532 20.917 10.4996 21.0634 10.646 21.2099C10.6948 21.2587 10.768 21.2993 10.7355 21.3807C10.7029 21.4539 10.6216 21.4458 10.5484 21.4458C9.25527 21.4376 7.9784 21.6329 6.68526 21.6248C6.61207 21.6248 6.5226 21.6085 6.47381 21.698C6.5714 21.8037 6.6934 21.7793 6.79912 21.7793C8.23052 21.8037 9.66191 21.8281 11.0933 21.9176C11.199 21.9258 11.2966 21.9258 11.3861 22.0152C11.8334 22.4952 12.2888 22.9752 12.7362 23.4552C12.785 23.504 12.8175 23.5528 12.785 23.6179C12.7524 23.6748 12.6955 23.6667 12.6467 23.6667C11.9473 23.7155 11.2397 23.7318 10.5484 23.8131C10.1255 23.8619 9.79204 23.7236 9.45859 23.5121C9.17394 23.3331 8.88115 23.1623 8.5965 22.9915C8.5477 22.9671 8.50704 22.9264 8.42571 22.9996C8.6697 23.2437 8.96248 23.4226 9.239 23.626C9.27153 23.6504 9.32033 23.6667 9.35286 23.6911C9.40979 23.7318 9.49925 23.7724 9.48299 23.8457C9.46672 23.9433 9.36913 23.9026 9.30406 23.9026C7.71814 24.0084 6.12409 24.0246 4.5463 24.2117C4.09086 24.2687 3.61915 24.2443 3.16371 24.2605C3.07424 24.2605 2.96852 24.228 2.88719 24.3175C2.94412 24.407 3.03358 24.3907 3.10678 24.3907C4.39991 24.4395 5.68491 24.4395 6.96992 24.3419C7.05124 24.3338 7.15697 24.3012 7.18137 24.3907C7.2139 24.4883 7.10817 24.5127 7.03498 24.5453C6.81539 24.6592 6.60393 24.7731 6.39248 24.887C6.32741 24.9195 6.23795 24.9439 6.28675 25.0334C6.32741 25.1066 6.42501 25.0903 6.48194 25.0497C6.72593 24.9114 7.00245 24.8381 7.24643 24.6998C7.75881 24.4233 8.29558 24.3175 8.88115 24.3175C10.3369 24.3175 11.8009 24.285 13.2567 24.2687C13.582 24.2687 14.0374 24.708 14.0293 25.0334C14.013 25.6354 13.9724 26.8394 13.9724 26.8394L13.8666 29.703C13.8504 29.8169 13.826 29.6704 13.704 29.7843C13.6958 29.7599 13.6714 29.7355 13.6714 29.7111C13.7284 28.9708 13.8097 27.116 13.8097 27.116C13.8097 27.116 13.8504 26.0828 13.8585 25.5703C13.8585 25.432 13.7934 25.3018 13.6226 25.4076C12.8419 25.8794 12.0123 26.2618 11.2153 26.7011C10.9388 26.8557 10.6541 26.994 10.3695 27.1404C10.3044 27.1729 10.2231 27.2299 10.1499 27.1567C10.0848 27.0916 10.1336 27.0184 10.1662 26.9614C10.2475 26.7662 10.2068 26.5547 10.2394 26.3513C10.2637 26.1886 10.1418 26.1804 10.0279 26.1967C9.68631 26.2537 9.34473 26.3187 9.00315 26.3676C8.14919 26.4977 7.30337 26.6197 6.44941 26.7418C6.40061 26.7499 6.35995 26.7499 6.33555 26.7011C6.30302 26.6197 6.31928 26.5465 6.35995 26.4733C6.50634 26.213 6.48194 26.1967 6.19729 26.156C5.54665 26.0584 4.88789 26.0177 4.23725 25.9689C4.09899 25.9608 4.0502 25.912 4.07459 25.7737C4.09899 25.6598 4.03393 25.6191 3.92007 25.6191C3.70048 25.611 3.47276 25.5947 3.25317 25.5703C3.07424 25.554 2.87092 25.5866 2.79773 25.3425C2.77333 25.2693 2.67573 25.2774 2.61067 25.253C1.89497 25.0253 1.17927 24.8056 0.463577 24.5778C0.357849 24.5697 0.276519 24.5615 0.219589 24.4395Z" fill="white"></path>
<path fill-rule="evenodd" clip-rule="evenodd" d="M15.4386 26.2864C15.4386 26.5166 15.4395 26.7477 15.4404 26.9791C15.4422 27.4428 15.444 27.9077 15.4386 28.369C15.4386 28.5398 15.4711 28.6456 15.6175 28.7432C15.8615 28.914 15.9266 29.1337 15.829 29.3696C15.7314 29.6055 15.5037 29.752 15.2678 29.7357C15.0157 29.7194 14.8124 29.5323 14.7636 29.2638C14.7229 29.0361 14.8124 28.8571 14.9994 28.7351C15.1377 28.6456 15.1865 28.5398 15.1865 28.3853C15.188 28.1211 15.19 27.8567 15.192 27.5922C15.2011 26.3981 15.2102 25.2006 15.1702 24.0085C15.1621 23.8621 15.219 23.7807 15.3085 23.6831L21.8473 17.1669C23.3194 15.7025 24.7915 14.2463 26.2635 12.7983C26.3774 12.6925 26.4262 12.603 26.3855 12.4322C26.3123 12.1393 26.5075 11.8546 26.7922 11.7732C27.0036 11.7082 27.3127 11.8709 27.4347 12.0987C27.5485 12.3183 27.4753 12.603 27.2395 12.782C27.1093 12.8796 26.9548 12.8715 26.8084 12.8471C26.6864 12.8308 26.5807 12.839 26.475 12.9447C23.051 16.3696 19.6271 19.7864 16.2031 23.2032C16.0974 23.3048 15.9937 23.4085 15.89 23.5122L15.89 23.5123L15.8899 23.5124C15.7862 23.6161 15.6826 23.7198 15.5769 23.8214C15.4711 23.919 15.4467 24.0167 15.4467 24.1468C15.4386 24.8627 15.4386 25.5786 15.4386 26.2864ZM15.6074 29.175C15.5586 29.0286 15.4692 28.9066 15.3146 28.874C15.1927 28.8496 14.9893 29.0611 15.0137 29.1831C15.0463 29.3458 15.1439 29.476 15.3065 29.4679C15.4692 29.4679 15.5668 29.3377 15.6074 29.175ZM27.1983 12.3421C27.1983 12.5129 27.0763 12.5861 26.9055 12.6024C26.7591 12.5861 26.6289 12.5373 26.6371 12.3584C26.6371 12.1794 26.7103 12.0574 26.8973 12.0492C27.0925 12.033 27.1901 12.1631 27.1983 12.3421Z" fill="white"></path>
<path fill-rule="evenodd" clip-rule="evenodd" d="M21.3274 24.4555H17.9929C17.8936 24.4555 17.8158 24.407 17.7377 24.3582C17.7198 24.3471 17.702 24.3359 17.6839 24.3253C17.0739 23.9593 17.0983 23.3735 17.1308 22.7878C17.139 22.6983 17.1796 22.6414 17.2447 22.5844C17.5714 22.2603 17.8983 21.9362 18.2253 21.6121L18.2263 21.6111C19.869 19.9827 21.5135 18.3524 23.141 16.7108C23.507 16.3447 23.8486 16.1007 24.3854 16.1983C24.5004 16.2183 24.6216 16.2137 24.7432 16.2091C24.8194 16.2062 24.8958 16.2033 24.971 16.2064C25.2149 16.2146 25.4264 16.2146 25.5891 15.9543C25.7355 15.7102 26.1584 15.7346 26.3698 15.9461C26.565 16.1414 26.5569 16.5644 26.3454 16.7434C26.1014 16.9549 25.7192 16.9467 25.5484 16.6864C25.4345 16.5074 25.2963 16.4586 25.1092 16.4749C25.071 16.4767 25.0327 16.4794 24.9946 16.482C24.8623 16.4911 24.7312 16.5002 24.605 16.4749C24.0113 16.3773 23.6128 16.6295 23.198 17.0525C21.6595 18.6253 20.0928 20.1699 18.5261 21.7144C18.2127 22.0233 17.8994 22.3322 17.5863 22.6414C17.4643 22.7634 17.4155 22.8854 17.4155 23.0644C17.4164 23.103 17.4167 23.1414 17.417 23.1797C17.4193 23.4804 17.4215 23.7681 17.7245 23.9918C17.9116 24.1301 18.0742 24.2196 18.3182 24.2196C20.4207 24.2115 22.5232 24.2196 24.6338 24.2277L24.6456 24.2277C24.8002 24.2277 24.8652 24.1464 24.9384 24.0406C25.2393 23.6013 25.6948 23.7396 25.8818 24.0487C26.0364 24.3009 25.9957 24.545 25.7517 24.7565C25.5484 24.9355 25.2231 24.9517 25.0604 24.7402C24.8652 24.4718 24.6212 24.4474 24.3285 24.4555C23.5841 24.4677 22.8351 24.4662 22.0884 24.4647H22.0884C21.8398 24.4641 21.5915 24.4636 21.3437 24.4636C21.3274 24.4474 21.3274 24.4555 21.3274 24.4555ZM26.247 16.3286C26.2144 16.1578 26.1168 16.0439 25.946 16.0601C25.7915 16.0764 25.6451 16.1659 25.6614 16.3449C25.6777 16.5076 25.8078 16.6215 25.9704 16.6215C26.1331 16.6215 26.2307 16.4994 26.247 16.3286ZM25.6879 24.3091C25.6879 24.4881 25.5741 24.5776 25.3952 24.5857C25.2081 24.5857 25.1024 24.4799 25.1186 24.301C25.1186 24.1464 25.2081 24.0325 25.387 24.0406C25.5578 24.0406 25.6879 24.1301 25.6879 24.3091Z" fill="white"></path>
<path fill-rule="evenodd" clip-rule="evenodd" d="M15.1813 12.6939C15.1791 12.7452 15.1769 12.7966 15.1769 12.8481C15.1769 12.8481 15.1688 12.8481 15.1525 12.8644C15.1525 12.9292 15.1538 12.9946 15.1551 13.0604C15.1585 13.2257 15.1618 13.3929 15.1444 13.5559C15.12 13.7918 15.2176 13.9545 15.364 14.1416C15.6405 14.5077 15.9902 14.5565 16.3968 14.5321C16.5432 14.524 16.6652 14.4914 16.7709 14.3775C17.07 14.0662 17.3781 13.7595 17.6851 13.4539L17.6851 13.4539L17.6851 13.4539L17.6854 13.4537C17.7875 13.3521 17.8894 13.2506 17.9909 13.1491C18.1861 12.9457 18.5765 12.9701 18.731 13.1979C18.8936 13.4176 19.097 13.4989 19.3572 13.4176C19.6012 13.3362 19.7476 13.1654 19.7476 12.9051C19.7476 12.6366 19.6175 12.4576 19.3735 12.3763C19.1132 12.2868 18.8855 12.36 18.731 12.6041C18.6171 12.783 18.4463 12.7668 18.2837 12.7342C18.1386 12.7013 18.1539 12.5988 18.1692 12.4961C18.1728 12.4722 18.1764 12.4482 18.1779 12.4251C18.1834 12.3434 18.1815 12.2654 18.1797 12.1886V12.1886V12.1886C18.1788 12.1506 18.1779 12.1129 18.1779 12.0753C18.1779 11.9614 18.1779 11.8394 18.2674 11.7499C18.8448 11.1804 19.4304 10.6028 20.0078 10.0252C20.081 9.952 20.1461 9.90319 20.2437 9.96827C20.4301 10.0848 20.5794 9.97876 20.7129 9.88395L20.7317 9.87065C20.9513 9.71608 20.9919 9.39881 20.8455 9.15476C20.6991 8.9107 20.4145 8.82935 20.1461 8.94324C19.9021 9.049 19.7801 9.29306 19.8696 9.55338C19.9184 9.70795 19.8533 9.80557 19.7557 9.90319C19.6199 10.0365 19.4874 10.1739 19.3548 10.3115L19.3548 10.3115C19.0745 10.6023 18.7935 10.8939 18.4789 11.1479C17.9909 11.5384 17.8282 12.0021 17.9258 12.5878C17.9502 12.7424 17.8852 12.8563 17.7794 12.962C17.3972 13.3362 17.0149 13.7104 16.649 14.0928C16.4533 14.3025 16.2156 14.266 15.9874 14.2309C15.9501 14.2251 15.913 14.2194 15.8763 14.2148C15.7055 14.1904 15.429 13.7511 15.429 13.5803C15.429 13.423 15.4308 13.2657 15.4326 13.1085L15.4326 13.1084C15.4362 12.7939 15.4399 12.4793 15.429 12.1648C15.4209 11.9858 15.4778 11.8638 15.5998 11.7417C15.726 11.6155 15.8521 11.4899 15.9781 11.3643L15.9782 11.3642C16.3559 10.988 16.7324 10.6129 17.1044 10.2286C17.2427 10.0903 17.3484 10.009 17.5598 10.0578C17.8526 10.1228 18.0315 9.98455 18.1617 9.69168C18.2674 9.45576 18.1535 9.26865 17.999 9.12222C17.8282 8.95951 17.633 8.86189 17.3972 9.00833C17.1369 9.17103 17.0556 9.3256 17.1125 9.6266C17.1369 9.74863 17.1369 9.84625 17.0393 9.94387C16.8867 10.0941 16.7355 10.2458 16.5845 10.3975C16.2448 10.7386 15.9057 11.0791 15.551 11.4001C15.2582 11.6685 15.0874 11.937 15.1688 12.3437C15.1915 12.4574 15.1864 12.5751 15.1813 12.6939ZM17.9249 9.52854C17.9249 9.70751 17.7948 9.78073 17.6647 9.797C17.4532 9.797 17.3556 9.69938 17.3637 9.52854C17.3637 9.37397 17.4451 9.22754 17.624 9.22754C17.7948 9.22754 17.9249 9.34957 17.9249 9.52854ZM20.383 9.74068C20.5538 9.70814 20.6676 9.60238 20.6758 9.44782C20.6839 9.27698 20.5619 9.16309 20.3911 9.16309C20.2366 9.16309 20.1065 9.25257 20.0902 9.40714C20.0821 9.58611 20.2203 9.68374 20.383 9.74068ZM19.4686 12.8975C19.4523 13.0521 19.3547 13.1497 19.1676 13.1578C19.0212 13.1171 18.8993 13.0358 18.9155 12.8568C18.9237 12.6778 19.0456 12.5802 19.2164 12.5884C19.3954 12.5965 19.4848 12.7267 19.4686 12.8975Z" fill="white"></path>
<path fill-rule="evenodd" clip-rule="evenodd" d="M15.1641 20.4214C15.1641 20.3018 15.165 20.183 15.1659 20.0646C15.1677 19.8287 15.1695 19.594 15.1641 19.3557C15.1641 19.2174 15.1966 19.1197 15.2942 19.0221C15.9611 18.3632 16.626 17.7022 17.2909 17.0412C17.9557 16.3802 18.6206 15.7192 19.2875 15.0603C19.4094 14.9383 19.4582 14.8325 19.442 14.6617C19.4094 14.3119 19.507 14.1248 19.7592 14.0353C20.0438 13.9376 20.2715 14.0271 20.4667 14.3037C20.6131 14.5071 20.5643 14.6942 20.4261 14.8651C20.2878 15.0359 20.117 15.1905 19.8812 15.0928C19.7185 15.0278 19.6372 15.0684 19.5233 15.1823C18.222 16.4921 16.9126 17.8019 15.5951 19.1035C15.4812 19.2174 15.4324 19.3231 15.4406 19.4696C15.4487 20.0878 15.4487 20.7142 15.4406 21.3406C15.4324 21.6335 15.6358 21.7799 15.8391 21.8857C16.0343 21.9833 16.2539 21.9508 16.4165 21.7555C16.4735 21.6905 16.5385 21.6254 16.6036 21.5684C17.1408 21.0391 17.1405 21.0316 17.1092 20.3065L17.1078 20.2749C17.1001 20.1133 17.0051 20.0391 16.8985 19.9558L16.8801 19.9414C16.6849 19.7868 16.5955 19.5997 16.6849 19.3557C16.7744 19.1035 17.0265 18.9489 17.2949 18.9733C17.5307 18.9977 17.6771 19.1523 17.7585 19.3557C17.8398 19.559 17.8073 19.7543 17.6202 19.8845C17.4006 20.039 17.3193 20.2343 17.3681 20.5027C17.4575 20.999 17.3193 21.4057 16.8801 21.6986C16.7825 21.7637 16.7093 21.8532 16.6361 21.9426L16.6361 21.9426C16.1644 22.4552 15.4894 22.146 15.1966 21.6661C15.1722 21.6233 15.1752 21.5669 15.1783 21.5105C15.1793 21.4917 15.1803 21.4728 15.1803 21.4545C15.1641 21.1129 15.1641 20.7712 15.1641 20.4214ZM16.9297 19.5268C16.9378 19.6977 17.0354 19.8116 17.2062 19.8197C17.3933 19.836 17.4827 19.7139 17.4909 19.5431C17.499 19.3804 17.4095 19.2665 17.2387 19.2584C17.0679 19.2502 16.946 19.3316 16.9297 19.5268ZM19.9803 14.8488C19.7932 14.8569 19.7119 14.7349 19.7037 14.5803C19.6956 14.4013 19.7688 14.2956 19.9559 14.2793C20.1348 14.2793 20.273 14.3688 20.273 14.5559C20.273 14.7186 20.151 14.8406 19.9803 14.8488Z" fill="white"></path>
<path fill-rule="evenodd" clip-rule="evenodd" d="M19.2851 21.9342C19.1468 21.5681 19.3664 21.3484 19.6104 21.1125C20.0169 20.7233 20.4152 20.3216 20.814 19.9193L20.814 19.9193C20.9737 19.7583 21.1335 19.5972 21.2939 19.4367C21.4077 19.3228 21.5216 19.274 21.6924 19.274C22.2658 19.278 22.8391 19.2801 23.4125 19.2821L23.4125 19.2821C23.9859 19.2841 24.5593 19.2862 25.1326 19.2903C25.3116 19.2903 25.4254 19.2252 25.523 19.0706C25.6775 18.8265 25.9541 18.7615 26.1736 18.8672C26.4583 19.0137 26.5884 19.3147 26.4827 19.6075C26.4014 19.8353 26.1167 19.9817 25.8483 19.9411C25.6938 19.9167 25.5962 19.8109 25.5149 19.697C25.4254 19.5587 25.3116 19.5262 25.157 19.5262C24.0428 19.5343 22.9367 19.5343 21.8225 19.5262C21.668 19.5262 21.5541 19.5668 21.4403 19.6807C21.1434 19.9817 20.8446 20.2807 20.5457 20.5796L20.5457 20.5797L20.5456 20.5797C20.2468 20.8787 19.9479 21.1776 19.651 21.4786C19.4314 21.6983 19.4233 22.2108 19.6429 22.4223C19.6839 22.4612 19.7213 22.5059 19.7589 22.5508C19.8707 22.6844 19.9851 22.8209 20.2041 22.8209C20.4074 22.8209 20.5457 22.7884 20.6839 22.6094C20.9035 22.3084 21.302 22.3165 21.5297 22.5931C21.7412 22.8453 21.7249 23.1219 21.4891 23.3497C21.2695 23.5612 20.9198 23.5693 20.7327 23.3253C20.5538 23.0894 20.3586 23.0324 20.0902 23.0812C19.9438 23.1056 19.83 23.0568 19.7405 22.9348C19.6998 22.886 19.6592 22.8372 19.6104 22.8046C19.3501 22.5687 19.1712 22.3084 19.2851 21.9342ZM25.9775 19.673C26.132 19.6486 26.2459 19.5591 26.2378 19.3964C26.2296 19.2337 26.132 19.1036 25.9612 19.1036C25.7823 19.1036 25.6522 19.2256 25.6603 19.4127C25.6684 19.5836 25.8067 19.6649 25.9775 19.673ZM21.418 22.9273C21.418 23.0493 21.2553 23.2201 21.1089 23.2283C20.9707 23.1876 20.8405 23.1144 20.8324 22.9354C20.8243 22.7564 20.9463 22.6751 21.0927 22.6425C21.2309 22.61 21.418 22.789 21.418 22.9273Z" fill="white"></path>
<path fill-rule="evenodd" clip-rule="evenodd" d="M19.859 18.452C19.3791 18.452 19.1433 18.2405 19.0782 17.7849C19.0658 17.679 18.9913 17.6303 18.9206 17.5841C18.8989 17.57 18.8777 17.5561 18.8586 17.5408C18.5008 17.248 18.5333 16.8331 18.9237 16.6053C19.1758 16.4589 19.4361 16.5321 19.6394 16.8005C19.7939 17.0039 19.7614 17.2887 19.5662 17.4676C19.2734 17.7442 19.2571 17.8825 19.493 18.0859C19.6475 18.2161 19.981 18.2242 20.1274 18.0778C20.4322 17.7756 20.737 17.4743 21.0415 17.1733L21.0415 17.1733L21.0416 17.1733C21.647 16.5749 22.2513 15.9777 22.8519 15.3769C23.0389 15.1898 22.9657 14.6773 22.7543 14.5146C22.5103 14.3356 22.4452 14.0834 22.5672 13.8149C22.6567 13.6034 22.9007 13.4977 23.1691 13.5302C23.3805 13.5628 23.6326 13.8231 23.6326 14.0509C23.6326 14.238 23.5595 14.4088 23.3968 14.4983C23.2097 14.6041 23.1365 14.7423 23.1853 14.9295C23.2748 15.2711 23.1284 15.4989 22.8844 15.743C22.0402 16.5549 21.2204 17.3831 20.3924 18.2193L20.3876 18.2242C20.2331 18.3869 20.0623 18.5089 19.859 18.452ZM23.0699 13.7988C22.891 13.8151 22.7853 13.9046 22.7934 14.0673C22.8015 14.23 22.8991 14.3683 23.0699 14.3683C23.2407 14.3602 23.3708 14.2381 23.3708 14.0592C23.3627 13.8883 23.2163 13.8151 23.0699 13.7988ZM19.1835 16.8086C19.3706 16.8086 19.4438 16.9388 19.4519 17.134C19.4356 17.2723 19.3462 17.3699 19.1754 17.3781C19.0046 17.3699 18.8907 17.2804 18.8988 17.0933C18.907 16.9144 19.0127 16.8086 19.1835 16.8086Z" fill="white"></path>
<path fill-rule="evenodd" clip-rule="evenodd" d="M14.9944 6.49273C14.8968 6.02089 15.0838 5.67108 15.4579 5.40262C15.6125 5.28872 15.6775 5.14229 15.6287 4.93891C15.5637 4.66232 15.7182 4.46707 15.9459 4.36131C16.1818 4.25556 16.4014 4.33691 16.5721 4.52402C16.7511 4.71926 16.7592 4.93891 16.6209 5.18297C16.4827 5.41075 16.2875 5.50024 16.0354 5.42702C15.8989 5.38688 15.8259 5.43389 15.7145 5.50549L15.7101 5.50837C15.1919 5.84637 15.2354 6.34387 15.2771 6.82159L15.2771 6.8216C15.2806 6.86129 15.284 6.90084 15.2871 6.94016C15.3034 7.19235 15.5393 7.38759 15.767 7.46081C15.9947 7.53403 16.2712 7.58284 16.4908 7.36319C16.6697 7.17608 16.8568 6.99711 17.0439 6.82627C17.1333 6.73678 17.1415 6.64729 17.1089 6.5334C17.0439 6.25681 17.1415 6.08597 17.3773 5.93954C17.6213 5.7931 17.8328 5.88259 18.0198 6.02902C18.215 6.18359 18.2394 6.46832 18.1174 6.67984C17.9791 6.92389 17.7758 7.02965 17.5237 6.9483C17.3692 6.89948 17.2797 6.93203 17.1821 7.04592C17.1089 7.13134 17.0296 7.20862 16.9503 7.2859L16.9503 7.28591C16.871 7.36319 16.7917 7.44047 16.7185 7.52589C16.564 7.713 16.377 7.76995 16.1411 7.76995C15.401 7.75368 15.0025 7.36319 14.9944 6.62289V6.49273ZM15.8633 4.88179C15.8958 5.03636 15.9609 5.16652 16.1479 5.15839C16.3187 5.15839 16.4407 5.05263 16.4489 4.88179C16.457 4.71096 16.335 4.61333 16.1642 4.59706C15.9771 4.58893 15.9039 4.71096 15.8633 4.88179ZM17.9292 6.42799C17.9373 6.60697 17.7828 6.67205 17.6364 6.71272C17.4818 6.68832 17.3598 6.6151 17.3598 6.44426C17.3517 6.27342 17.4493 6.14326 17.612 6.13513C17.7828 6.12699 17.921 6.25715 17.9292 6.42799Z" fill="white"></path>
<path fill-rule="evenodd" clip-rule="evenodd" d="M15.789 8.54735C15.7626 8.54583 15.7362 8.5443 15.7097 8.54227C15.5065 8.54659 15.4113 8.54862 15.3631 8.59723C15.3206 8.64006 15.3145 8.71906 15.3031 8.86768C15.2543 9.63238 15.2949 9.67306 16.0594 9.55917C16.1489 9.54289 16.214 9.54289 16.2384 9.64865C16.2418 9.66396 16.2434 9.68105 16.245 9.6982C16.2512 9.76309 16.2574 9.82896 16.3604 9.80322C16.4603 9.78014 16.4512 9.68435 16.4431 9.59834C16.4426 9.59338 16.4421 9.58845 16.4417 9.58357C16.401 9.25816 16.4092 8.93276 16.4417 8.60735C16.4498 8.53413 16.458 8.46092 16.3848 8.42024C16.3037 8.37604 16.2694 8.43857 16.2395 8.49306C16.2364 8.49875 16.2333 8.50435 16.2302 8.50973C16.1814 8.59922 16.1164 8.59108 16.0269 8.57481C15.9476 8.55651 15.8683 8.55193 15.789 8.54735ZM16.0019 9.11925C16.0019 9.32263 15.9124 9.39585 15.7091 9.36331C15.4895 9.38771 15.4651 9.24128 15.4651 9.0623C15.4574 8.82446 15.6162 8.8254 15.7639 8.82628C15.7728 8.82633 15.7816 8.82638 15.7904 8.82638C15.9856 8.82638 16.0019 8.96468 16.0019 9.11925Z" fill="white"></path>
<path fill-rule="evenodd" clip-rule="evenodd" d="M17.2006 12.4998C17.2578 12.4468 17.3149 12.3939 17.3081 12.2768C17.3027 12.2338 17.2582 12.2014 17.2122 12.168C17.1887 12.1509 17.1647 12.1334 17.1454 12.1141C17.1091 12.0778 17.0734 12.0364 17.0374 11.9946C16.9446 11.887 16.8501 11.7774 16.7388 11.7481C16.61 11.7158 16.5378 11.8218 16.4639 11.9303C16.4258 11.9862 16.3873 12.0429 16.3402 12.0816C16.0637 12.3012 16.0719 12.3094 16.3159 12.5453C16.5307 12.7521 16.6385 12.8558 16.7449 12.8545C16.852 12.8531 16.9577 12.7453 17.1698 12.529C17.1798 12.519 17.1902 12.5094 17.2006 12.4998ZM16.7297 12.0732C16.8842 12.0732 16.9574 12.1953 16.9818 12.3254C16.9574 12.48 16.8842 12.5695 16.7378 12.5695C16.5752 12.5695 16.4532 12.48 16.4613 12.3173C16.4695 12.1709 16.5833 12.0732 16.7297 12.0732Z" fill="white"></path>
<path fill-rule="evenodd" clip-rule="evenodd" d="M20.8263 26.413C20.8802 26.3594 20.8802 26.2516 20.8802 26.0347C20.8802 25.8109 20.8802 25.6991 20.8243 25.6421C20.7684 25.5852 20.6565 25.5832 20.4329 25.5791H20.4085C20.2065 25.575 20.1069 25.5729 20.0567 25.6217C20.0079 25.6692 20.0059 25.7648 20.0018 25.9533C20.0018 26.0184 20.0018 26.0753 19.9937 26.1404C19.9612 26.3926 20.075 26.5065 20.3272 26.4658C20.3546 26.4603 20.3857 26.4622 20.4155 26.4641C20.4299 26.465 20.444 26.4658 20.4573 26.4658C20.6674 26.4658 20.7731 26.4658 20.8263 26.413ZM20.6842 25.9932C20.7004 26.1478 20.5866 26.2373 20.4483 26.278C20.3019 26.2535 20.1962 26.1803 20.1881 26.0176C20.1799 25.8793 20.2613 25.7817 20.4076 25.7654C20.5703 25.7492 20.6679 25.8468 20.6842 25.9932Z" fill="white"></path>
<path d="M18.1466 13.7334C18.1954 13.7741 18.2442 13.8066 18.2768 13.8392C18.5045 14.0669 18.7322 14.2866 18.9599 14.5144C19.0169 14.5713 19.0982 14.6283 19.025 14.7096C18.9681 14.7666 18.8786 14.7178 18.8379 14.6608C18.6265 14.4005 18.3662 14.1808 18.1222 13.953C18.0816 13.9124 18.0328 13.8554 18.0653 13.7903C18.0734 13.7659 18.1141 13.7497 18.1466 13.7334Z" fill="white"></path>
<path d="M16.6337 15.1973C16.7069 15.1973 16.7313 15.2379 16.7557 15.2705C16.9835 15.5308 17.2193 15.783 17.4958 15.9945C17.5609 16.0433 17.6178 16.1084 17.5609 16.1735C17.4958 16.2548 17.4145 16.1898 17.3576 16.1328C17.1136 15.8888 16.8696 15.6447 16.6256 15.4006C16.5849 15.36 16.528 15.3112 16.5687 15.2461C16.5849 15.2217 16.6175 15.2054 16.6337 15.1973Z" fill="white"></path>
<path d="M17.7951 15.8645C17.8033 15.9215 17.7789 15.9459 17.7463 15.9622C17.6975 15.9784 17.6569 15.9622 17.6325 15.9215C17.4048 15.6368 17.1445 15.3846 16.868 15.1486C16.8192 15.108 16.7948 15.0592 16.8273 15.0104C16.8598 14.9534 16.9249 14.9697 16.9656 15.0022C17.2421 15.2625 17.5105 15.531 17.7789 15.7995C17.787 15.8157 17.7951 15.8483 17.7951 15.8645Z" fill="white"></path>
<path d="M17.3972 14.4736C17.4379 14.5062 17.4785 14.5306 17.5029 14.555C17.7388 14.7828 17.9665 15.0187 18.1942 15.2465C18.2511 15.3034 18.3406 15.3685 18.2511 15.4417C18.1698 15.5231 18.1129 15.4173 18.0641 15.3604C17.8282 15.1326 17.6005 14.8967 17.3647 14.6689C17.3159 14.6201 17.2671 14.5875 17.2996 14.5143C17.3159 14.5062 17.3647 14.4899 17.3972 14.4736Z" fill="white"></path>
<path d="M17.8363 14.0029C17.9501 14.0111 17.9745 14.068 18.0233 14.1087C18.251 14.3365 18.4788 14.5561 18.7065 14.7839C18.7553 14.8327 18.861 14.8897 18.7716 14.971C18.6984 15.0361 18.6414 14.971 18.5926 14.9222C18.3649 14.6619 18.1209 14.4178 17.8607 14.19C17.82 14.1575 17.7712 14.125 17.7956 14.0599C17.8037 14.0192 17.8281 14.0029 17.8363 14.0029Z" fill="white"></path>
<path d="M17.1839 14.7343C17.2002 14.7506 17.2408 14.7668 17.2734 14.7994C17.4848 15.0516 17.7207 15.2793 17.9647 15.4909C18.0135 15.5315 18.1029 15.5803 18.0379 15.6617C17.9809 15.7268 17.9077 15.678 17.8589 15.6291C17.6231 15.3932 17.3791 15.1573 17.1432 14.9133C17.1026 14.8726 17.07 14.8319 17.0863 14.775C17.0944 14.7343 17.1188 14.7261 17.1839 14.7343Z" fill="white"></path>
<path d="M17.663 14.2539C17.7037 14.2864 17.7444 14.319 17.7769 14.3515C18.0046 14.5793 18.2323 14.799 18.4601 15.0267C18.5089 15.0756 18.5821 15.1325 18.5089 15.1976C18.4519 15.2545 18.3869 15.1976 18.3462 15.1569C18.1022 14.921 17.8664 14.6851 17.6305 14.441C17.5898 14.4003 17.541 14.3434 17.5817 14.2783C17.5898 14.2702 17.6305 14.262 17.663 14.2539Z" fill="white"></path>
<path d="M14.9883 9.09644C14.9883 8.91747 14.9883 8.73849 14.9883 8.56765C14.9883 8.49444 14.9964 8.41309 15.094 8.41309C15.1916 8.42122 15.1916 8.50257 15.1753 8.57579C15.0859 8.93374 15.1265 9.29982 15.1672 9.65777C15.1753 9.71471 15.1997 9.79606 15.1021 9.8042C15.0289 9.81233 14.9883 9.75539 14.9883 9.68217C14.9883 9.48693 14.9883 9.29168 14.9883 9.09644Z" fill="white"></path>
<path d="M14.7666 30.5003C14.3762 30.2644 14.0183 30.0854 13.7012 29.8251C13.6361 29.7763 13.6117 29.7031 13.6686 29.6461C13.7581 29.5566 13.7825 29.6624 13.8232 29.7112C14.0834 29.939 14.303 30.0366 14.5389 30.1993C14.6364 30.2562 14.7584 30.2888 14.7666 30.5003Z" fill="white"></path>
<path d="M15.9644 17.0608C15.9318 17.191 15.8749 17.2967 15.7204 17.2804C15.5821 17.2642 15.4845 17.1747 15.4927 17.0364C15.5008 16.8981 15.6065 16.833 15.7529 16.833C15.8993 16.8411 15.94 16.9469 15.9644 17.0608Z" fill="white"></path>
<path d="M23.5939 17.9722C23.4801 17.964 23.3906 17.9071 23.3906 17.7688C23.3906 17.6224 23.4882 17.541 23.6265 17.541C23.7647 17.541 23.8623 17.6468 23.8623 17.7769C23.8623 17.9152 23.7485 17.9722 23.5939 17.9722Z" fill="white"></path>
<path d="M15.7284 16.0439C15.8666 16.0684 15.9561 16.1497 15.9561 16.2961C15.9561 16.4182 15.8748 16.4914 15.7528 16.4995C15.6145 16.5076 15.4925 16.4507 15.4844 16.2961C15.4844 16.1416 15.5982 16.0846 15.7284 16.0439Z" fill="white"></path>
<path d="M16.6889 25.7578C16.6563 25.8961 16.5994 26.0181 16.453 26.0181C16.3147 26.0181 16.2578 25.8961 16.2578 25.7741C16.2578 25.6521 16.3147 25.5382 16.4611 25.5463C16.5994 25.5463 16.6563 25.6521 16.6889 25.7578Z" fill="white"></path>
<path d="M16.6889 24.985C16.6726 25.1233 16.6075 25.2209 16.4774 25.2291C16.331 25.2372 16.2578 25.1396 16.2578 25.0176C16.2578 24.8955 16.3066 24.7735 16.4449 24.7572C16.5913 24.741 16.6401 24.8711 16.6889 24.985Z" fill="white"></path>
<path d="M15.3804 3.9878C15.2421 3.97967 15.1445 3.93899 15.1445 3.79256C15.1445 3.63799 15.2421 3.55664 15.3723 3.55664C15.5024 3.55664 15.6 3.64613 15.6 3.79256C15.6 3.93899 15.4942 3.97967 15.3804 3.9878Z" fill="white"></path>
<path d="M24.6356 17.7693C24.6112 17.8994 24.5299 17.9727 24.3998 17.9808C24.2615 17.9808 24.1721 17.9157 24.1802 17.7774C24.1883 17.6554 24.2453 17.5415 24.3835 17.5415C24.5299 17.5334 24.6031 17.631 24.6356 17.7693Z" fill="white"></path>
<path d="M15.6061 2.18201C15.598 2.33658 15.5167 2.41793 15.3784 2.42606C15.2483 2.4342 15.1669 2.35285 15.1507 2.21455C15.1344 2.06812 15.2076 2.00303 15.3459 1.9949C15.4841 1.98676 15.5817 2.04371 15.6061 2.18201Z" fill="white"></path>
<path d="M15.9646 15.4827C15.9564 15.6291 15.867 15.7023 15.745 15.7023C15.6149 15.7023 15.4929 15.6454 15.4847 15.4908C15.4766 15.3362 15.6067 15.2874 15.7369 15.2793C15.867 15.2793 15.9483 15.3606 15.9646 15.4827Z" fill="white"></path>
<path d="M22.9515 20.7301C23.0491 20.7545 23.1711 20.787 23.1711 20.9334C23.1711 21.0799 23.0491 21.1449 22.919 21.1531C22.7889 21.1531 22.6994 21.0636 22.7075 20.9334C22.7075 20.8033 22.7889 20.7219 22.9515 20.7301Z" fill="white"></path>
<path d="M16.4336 23.9844C16.58 24.0088 16.6694 24.082 16.6776 24.204C16.6857 24.3342 16.5963 24.4155 16.4743 24.4318C16.336 24.4399 16.2547 24.3505 16.2465 24.2284C16.2384 24.0901 16.3441 24.0332 16.4336 23.9844Z" fill="white"></path>
<path d="M22.3741 20.925C22.3741 21.0877 22.2765 21.1447 22.1546 21.1528C22.0163 21.1528 21.9024 21.0796 21.9106 20.9332C21.9187 20.803 22.0244 20.7379 22.1546 20.7379C22.2847 20.7298 22.3579 20.803 22.3741 20.925Z" fill="white"></path>
<path d="M21.3652 20.7217C21.4953 20.7461 21.5848 20.8112 21.5766 20.9495C21.5685 21.0959 21.4709 21.161 21.3489 21.1528C21.235 21.1447 21.1212 21.0634 21.1293 20.9251C21.1375 20.7949 21.2513 20.7461 21.3652 20.7217Z" fill="white"></path>
<path d="M15.6085 2.97915C15.6085 3.13371 15.519 3.19066 15.397 3.1988C15.275 3.20693 15.1693 3.16626 15.153 3.01982C15.1449 2.88152 15.21 2.80017 15.3482 2.79204C15.4865 2.77577 15.5841 2.82458 15.6085 2.97915Z" fill="white"></path>
<path d="M19.527 25.375C19.5351 25.4157 19.5351 25.4564 19.5433 25.5052C19.5433 25.5784 19.5351 25.6597 19.4294 25.6435C19.3481 25.6272 19.3156 25.5621 19.34 25.4808C19.3644 25.4076 19.3806 25.3425 19.3562 25.2693C19.3237 25.1798 19.3318 25.0984 19.4376 25.0903C19.5514 25.0822 19.5433 25.1879 19.5351 25.2611C19.5433 25.2937 19.5351 25.3343 19.527 25.375Z" fill="white"></path>
<path d="M17.4127 25.3584C17.4127 25.3991 17.4208 25.4235 17.4208 25.4479C17.4208 25.5292 17.4696 25.6594 17.3395 25.6594C17.2175 25.6594 17.25 25.5374 17.25 25.456C17.25 25.3747 17.25 25.2933 17.25 25.2201C17.25 25.1469 17.25 25.0574 17.3395 25.0493C17.4371 25.0411 17.429 25.1469 17.429 25.212C17.429 25.2608 17.4208 25.3096 17.4127 25.3584Z" fill="white"></path>
<path d="M17.7551 25.3745C17.7388 25.464 17.8527 25.6348 17.7063 25.6348C17.5355 25.643 17.625 25.4558 17.625 25.3582C17.625 25.2606 17.5437 25.0654 17.6982 25.0735C17.8364 25.0816 17.7388 25.2606 17.7551 25.3745Z" fill="white"></path>
<path d="M17.9571 25.3586C17.949 25.318 17.949 25.2854 17.9408 25.2447C17.9327 25.1715 17.9327 25.082 18.0222 25.082C18.1035 25.082 18.1035 25.1715 18.1035 25.2529C18.0954 25.3342 18.1035 25.4074 18.1035 25.4888C18.1116 25.562 18.1116 25.6515 18.0222 25.6515C17.9408 25.6515 17.9327 25.562 17.9408 25.4888C17.949 25.4318 17.9571 25.3912 17.9571 25.3586Z" fill="white"></path>
<path d="M18.2902 25.3508C18.3065 25.2776 18.217 25.0986 18.3309 25.0986C18.5017 25.0986 18.3797 25.2695 18.4041 25.3671C18.4041 25.3834 18.4122 25.3996 18.4122 25.4159C18.4203 25.4973 18.4691 25.6274 18.3472 25.6274C18.2252 25.6274 18.274 25.4973 18.2821 25.4159C18.2902 25.4078 18.2902 25.3915 18.2902 25.3508Z" fill="white"></path>
<path d="M18.6425 25.3508C18.6344 25.302 18.6262 25.2613 18.6181 25.2207C18.61 25.1637 18.6181 25.0986 18.6832 25.0986C18.7645 25.0986 18.7808 25.1637 18.7645 25.2288C18.7482 25.3101 18.7401 25.3834 18.7564 25.4647C18.7808 25.5379 18.7808 25.6274 18.6832 25.6193C18.5856 25.6111 18.61 25.5217 18.6181 25.4484C18.6344 25.424 18.6425 25.3915 18.6425 25.3508Z" fill="white"></path>
<path d="M39.8574 20.1747C39.3127 20.4513 38.6948 20.5896 37.9956 20.5896C37.3208 20.5896 36.711 20.4757 36.1744 20.2398C35.6378 20.0038 35.1663 19.6784 34.7842 19.2554C34.402 18.8323 34.1012 18.3279 33.8898 17.734C33.6784 17.1401 33.5728 16.4893 33.5728 15.7815C33.5728 15.1062 33.6784 14.4798 33.898 13.9022C34.1093 13.3245 34.4183 12.8201 34.8167 12.3889C35.2151 11.9578 35.6947 11.6242 36.2476 11.372C36.8005 11.1279 37.4184 11.0059 38.0932 11.0059C38.6216 11.0059 39.1582 11.1117 39.7111 11.3313C40.264 11.5428 40.7111 11.8845 41.0526 12.3564L42.825 10.9571C42.5648 10.6154 42.2559 10.3144 41.8819 10.0703C41.516 9.82624 41.1176 9.61471 40.703 9.452C40.2883 9.28929 39.8493 9.16726 39.394 9.0859C38.9387 9.00455 38.4997 8.96387 38.085 8.96387C37.0769 8.96387 36.1419 9.12658 35.2882 9.44387C34.4264 9.76115 33.6784 10.2167 33.0524 10.8106C32.4183 11.4045 31.9223 12.1205 31.5564 12.9584C31.1906 13.8045 31.0117 14.7401 31.0117 15.7896C31.0117 16.8065 31.1825 17.7421 31.5239 18.5801C31.8654 19.4262 32.3451 20.1503 32.963 20.7523C33.5809 21.3625 34.3126 21.8343 35.1663 22.176C36.02 22.5177 36.9549 22.6804 37.9794 22.6804C39.0932 22.6804 40.077 22.477 40.9062 22.0784C41.7437 21.6798 42.451 21.1184 43.0282 20.3943L41.1664 19.0845C40.8331 19.532 40.394 19.8981 39.8574 20.1747Z" fill="white"></path>
<path fill-rule="evenodd" clip-rule="evenodd" d="M49.9482 13.5591C50.4523 13.7869 50.8588 14.0717 51.1515 14.4296C51.4442 14.7876 51.6556 15.1863 51.7775 15.6256C51.8995 16.0649 51.9564 16.5124 51.9564 16.9517V22.3374H49.8913V21.2147H49.8344C49.6149 21.6052 49.2571 21.9306 48.7693 22.1828C48.2815 22.4269 47.7205 22.5571 47.0945 22.5571C46.7368 22.5571 46.3709 22.5083 45.9806 22.4188C45.5985 22.3211 45.2408 22.1666 44.9156 21.955C44.5904 21.7435 44.3139 21.4588 44.1026 21.1089C43.883 20.7591 43.7773 20.3198 43.7773 19.8073C43.7773 19.1401 43.9643 18.6113 44.3383 18.2208C44.7123 17.8303 45.192 17.5293 45.7855 17.3178C46.3709 17.1062 47.0294 16.9679 47.7449 16.9029C48.4604 16.8378 49.1596 16.8052 49.8506 16.8052V16.5856C49.8506 16.0324 49.6474 15.6256 49.249 15.3571C48.8506 15.0886 48.3709 14.9585 47.8181 14.9585C47.3547 14.9585 46.9075 15.0561 46.4766 15.2513C46.0538 15.4466 45.6961 15.6825 45.4115 15.9673L44.2652 14.6249C44.7692 14.1612 45.3465 13.8113 46.005 13.5754C46.6636 13.3395 47.3303 13.2256 48.0051 13.2256C48.7937 13.2256 49.436 13.3395 49.9482 13.5591ZM49.2494 20.2709C49.6478 19.8642 49.8429 19.3109 49.8429 18.6113V18.294H49.347C48.9892 18.294 48.6152 18.3103 48.225 18.3428C47.8266 18.3753 47.4689 18.4404 47.1355 18.5462C46.8022 18.6438 46.5258 18.7984 46.3062 18.9855C46.0867 19.1726 45.9729 19.433 45.9729 19.7665C45.9729 19.9781 46.0217 20.157 46.1111 20.2953C46.2005 20.4336 46.3225 20.5475 46.4688 20.637C46.6152 20.7265 46.7778 20.7835 46.9648 20.8242C47.1518 20.8648 47.3306 20.8811 47.5176 20.8811C48.2819 20.8811 48.8591 20.6777 49.2494 20.2709Z" fill="white"></path>
<path d="M61.4409 14.333C61.1726 13.9994 60.8392 13.731 60.4246 13.5276C60.0099 13.3242 59.5221 13.2266 58.9449 13.2266C58.2782 13.2266 57.7091 13.3974 57.2213 13.731C56.7334 14.0727 56.392 14.4632 56.1969 14.9025H56.1562V13.4869H54.0586V22.3384H56.27V17.4733C56.27 17.1804 56.3107 16.8876 56.4001 16.5947C56.4895 16.3099 56.6115 16.0496 56.7741 15.8299C56.9367 15.6103 57.1481 15.4313 57.4083 15.2849C57.6684 15.1466 57.9692 15.0733 58.327 15.0733C58.6847 15.0733 58.9693 15.1466 59.1807 15.293C59.392 15.4394 59.5628 15.6266 59.6847 15.8543C59.8067 16.0821 59.888 16.3343 59.9205 16.6191C59.9612 16.9038 59.9774 17.1723 59.9774 17.4326V22.3384H62.1889V16.8062C62.1889 16.3506 62.1238 15.9113 62.0019 15.4801C61.8962 15.0489 61.701 14.6666 61.4409 14.333Z" fill="white"></path>
<path d="M75.8799 21.4188L72.2131 9.10156H71.3107L67.7171 21.4107L64.0747 9.10156H63.2617L67.2781 22.5252H68.1805L71.766 10.2568L75.4246 22.5252H76.327L80.3434 9.10156H79.5304L75.8799 21.4188Z" fill="white"></path>
<rect x="81.8477" y="13.6738" width="0.772375" height="8.85149" fill="white"></rect>
<path d="M82.2305 9.54102C82.0761 9.54102 81.9216 9.6061 81.8078 9.72C81.6858 9.84203 81.6289 9.99661 81.6289 10.1837C81.6289 10.379 81.6939 10.5417 81.8078 10.6637C81.9297 10.7858 82.0761 10.8427 82.2305 10.8427C82.3769 10.8427 82.5151 10.7858 82.6452 10.6637C82.7753 10.5417 82.8403 10.379 82.8403 10.1756C82.8403 9.98847 82.7753 9.8339 82.6533 9.71186C82.5314 9.6061 82.3932 9.54102 82.2305 9.54102Z" fill="white"></path>
<path d="M89.8322 18.3761C89.5801 18.1971 89.2875 18.0426 88.9622 17.9205C88.6452 17.7985 88.3118 17.7009 87.9703 17.6114C87.6207 17.53 87.2955 17.4405 87.0028 17.351C86.7264 17.2615 86.4825 17.1558 86.2955 17.0337C86.1085 16.9117 85.9703 16.7653 85.8727 16.57C85.767 16.3748 85.7183 16.1063 85.7183 15.7727C85.7183 15.4798 85.7833 15.2195 85.9053 15.0161C86.0353 14.8046 86.1898 14.6419 86.3849 14.5117C86.5801 14.3815 86.7996 14.2921 87.0354 14.2351C87.2793 14.1782 87.5151 14.1456 87.7264 14.1456C88.198 14.1456 88.6045 14.227 88.9378 14.3897C89.2631 14.5524 89.572 14.8127 89.8322 15.1544L89.9297 15.2846L90.5964 14.9022L90.4826 14.7395C89.8728 13.869 88.946 13.4297 87.7346 13.4297C87.4012 13.4297 87.0598 13.4785 86.7345 13.5761C86.4012 13.6738 86.1004 13.8202 85.8402 14.0073C85.5719 14.2026 85.3605 14.4466 85.1979 14.7395C85.0353 15.0324 84.954 15.3904 84.954 15.789C84.954 16.1876 85.0191 16.5212 85.1491 16.7897C85.2792 17.0581 85.4581 17.2859 85.6776 17.4731C85.8971 17.652 86.1492 17.7985 86.4337 17.9042C86.7102 18.01 87.0028 18.1076 87.3199 18.1971C87.6045 18.2703 87.9053 18.3517 88.2305 18.4412C88.5395 18.5307 88.8322 18.6446 89.0842 18.7829C89.3281 18.9131 89.5314 19.1002 89.694 19.3198C89.8484 19.5314 89.9297 19.8161 89.9297 20.1741C89.9297 20.4751 89.8647 20.7436 89.7427 20.9714C89.6127 21.2073 89.4419 21.4025 89.2387 21.5571C89.0273 21.7117 88.7915 21.8337 88.5395 21.9151C88.2793 21.9964 88.0273 22.0371 87.7752 22.0371C86.6695 22.0371 85.8565 21.6385 85.2711 20.8249L85.1654 20.6785L84.5312 21.1015L84.6369 21.2561C84.9865 21.7442 85.4337 22.1266 85.9703 22.3788C86.4988 22.631 87.1004 22.753 87.7508 22.753C88.1492 22.753 88.5313 22.6961 88.8809 22.5741C89.2305 22.4602 89.5476 22.2812 89.8159 22.0615C90.0842 21.8337 90.3037 21.5571 90.4663 21.2398C90.6289 20.9144 90.7021 20.5402 90.7021 20.1334C90.7021 19.7266 90.6208 19.3686 90.4663 19.0839C90.3037 18.7992 90.0923 18.5632 89.8322 18.3761Z" fill="white"></path>
<path fill-rule="evenodd" clip-rule="evenodd" d="M100.094 16.1069C100.264 16.6113 100.346 17.132 100.346 17.6527V18.1815H92.7763C92.7925 18.6208 92.8657 19.052 92.9958 19.4751C93.1421 19.9551 93.3617 20.3862 93.6625 20.7686C93.9633 21.1428 94.3373 21.452 94.7926 21.6879C95.2397 21.9239 95.7845 22.0378 96.4024 22.0378C97.0284 22.0378 97.5975 21.9157 98.0853 21.6635C98.5732 21.4113 99.0041 21.0452 99.3699 20.5652L99.4919 20.4106L100.069 20.9151L99.9634 21.0534C99.5325 21.6147 99.0122 22.0459 98.4349 22.3388C97.8577 22.6398 97.1748 22.7862 96.4105 22.7862C95.7601 22.7862 95.1584 22.6642 94.6218 22.4283C94.0853 22.1923 93.6137 21.8588 93.2234 21.4357C92.8332 21.0127 92.5324 20.5001 92.321 19.9144C92.1096 19.3368 92.0039 18.694 92.0039 18.0107C92.0039 17.3517 92.1096 16.7334 92.3291 16.172C92.5486 15.6188 92.8495 15.1225 93.2234 14.7158C93.5974 14.3008 94.0527 13.9836 94.5649 13.7558C95.0771 13.528 95.6381 13.4141 96.2235 13.4141C96.9065 13.4141 97.5244 13.5361 98.0366 13.7802C98.5569 14.0242 98.9878 14.3497 99.3293 14.7483C99.6707 15.1469 99.9228 15.6025 100.094 16.1069ZM99.5652 17.4736C99.5326 17.018 99.4432 16.595 99.2969 16.2126C99.1261 15.7814 98.8985 15.4072 98.6058 15.098C98.3212 14.7889 97.9716 14.5529 97.5651 14.3821C97.1586 14.2112 96.7033 14.1299 96.1992 14.1299C95.5976 14.1299 95.0773 14.2601 94.6545 14.5041C94.2236 14.7563 93.8658 15.0655 93.5975 15.4316C93.3211 15.7977 93.1179 16.1963 92.9878 16.595C92.8821 16.9204 92.8252 17.2133 92.8008 17.4736H99.5652Z" fill="white"></path>
</svg>