<svg height="24" width="150.683" viewBox="0 0 584.61 93.11" xmlns="http://www.w3.org/2000/svg" fill="#000">
    <path d="M148.2 8.14h-17.46v18.93h-8.94v15.31h8.71v23.93c0 9.86 3.18 22.11 21.89 22.11a37.75 37.75 0 0 0 10.54-1.36v-14.4a43.47 43.47 0 0 1-6.23.45c-5.9 0-8.51-3.06-8.51-7.71v-23h15V27.07h-15zM3.82 87.63H22.4V27.07H3.82zm194.9-62c-17.46 0-32.09 14.17-32.09 31.64 0 18.82 14.86 31.75 33.23 31.75 11.9 0 23.13-6.24 27.1-17.92l-14.52-5c-2 5-7.71 8-12.81 8-7.37 0-13.84-4.31-15-11.9h44a57.68 57.68 0 0 0 .23-6.35c.03-17.85-12.11-30.25-30.14-30.25zm-13.61 24.92A13.65 13.65 0 0 1 198.27 40c8.84 0 12.58 6.12 12.93 10.55zM38.79 25.94a12.92 12.92 0 1 0 12.86 13 12.9 12.9 0 0 0-12.86-13zM99 34.1h-.11a23.2 23.2 0 0 0-18.26-8.16c-17.46 0-29 16-29 31.3 0 16.33 11.23 31.52 28.81 31.52 2.72 0 12.58 0 18.48-8.16H99v7h17.58V27.07H99zM91.66 71l-.53.27a15.14 15.14 0 0 1-6.6 1.48h-.81a15.21 15.21 0 0 1-5.15-1.19l-.55-.24a15.43 15.43 0 0 1-3-26.06l.13-.09.23-.19a15.08 15.08 0 0 1 9.16-3 15 15 0 0 1 9.19 3l.18.14.18.14A15.42 15.42 0 0 1 91.66 71zm345-6.64a12.31 12.31 0 1 0 12.24 12.36 12.29 12.29 0 0 0-12.23-12.34zm44.6 8.28c-8.73 0-14.63-6.46-14.63-15.42 0-9.64 6.69-15.31 14.51-15.31 7.6 0 12.25 4.76 13.61 9.3l16.1-4.88c-3.06-13.83-16.78-20.64-29.37-20.64-18.59 0-33 13.84-33 31.75S462 89 481 89c13 0 26.42-6.92 30.28-20.87l-16.11-4.87a14.3 14.3 0 0 1-13.9 9.4zm81-45.59v7h-.11a23.21 23.21 0 0 0-18.26-8.16c-17.46 0-29 16-29 31.3 0 16.33 11.23 31.52 28.81 31.52 2.72 0 12.58 0 18.48-8.16h.11v7h17.58V27.07zm-7.91 44.22a15.08 15.08 0 0 1-5.78 1.46h-.77a15.22 15.22 0 0 1-6.61-1.48l-.51-.26a15.42 15.42 0 0 1-2.41-25.76l.22-.18.14-.1a15 15 0 0 1 9.2-3 15 15 0 0 1 9.19 3l.16.13.2.15a15.42 15.42 0 0 1-3 26zM268.57 25.94c-3.18 0-11.57 1-16.67 8.28h-.11V3.82H234.1v83.81h17.69v-33.8c0-5.78 3.28-11.56 10.88-11.56 7.26 0 10.55 5.22 10.55 11.79v33.57h17.57V50c0-12.49-6.91-24.06-22.22-24.06zm66.77 34.93c0 6.23-3.4 11.56-10.89 11.56S314 67.56 314 60.87v-33.8h-17.67v38c0 12.48 7.14 23.81 22.23 23.81a19.93 19.93 0 0 0 16.89-8.73h.12v7.49H353V27.07h-17.66zm60.89-34.93c-3.63 0-12.36.68-18.37 8.39h-.23V3.82h-17.69v83.81h17.24v-7.26h.23c5.78 7.6 14.4 8.39 18.36 8.39C413.35 88.76 425 73 425 57.24c0-15.31-11-31.3-28.77-31.3zm-.33 46.38l-.68.15h-.07l-.68.12a14.53 14.53 0 0 1-1.48.14h-.77a15 15 0 0 1-8.43-2.53 15.41 15.41 0 0 1-2.28-23.95A14.7 14.7 0 0 1 392 41.93h.15a15.42 15.42 0 0 1 3.72 30.39z"></path>
</svg>