<svg width="82" height="20" viewBox="0 0 82 20" fill="none" xmlns="http://www.w3.org/2000/svg">
<path fill-rule="evenodd" clip-rule="evenodd" d="M19.9026 9.99985C19.9026 15.5226 15.4471 20 9.95116 20C4.45526 20 0 15.5226 0 9.99985C0 4.47706 4.45526 0 9.95116 0C15.4471 0 19.9026 4.47706 19.9026 9.99985Z" fill="white"></path>
<path fill-rule="evenodd" clip-rule="evenodd" d="M13.0339 8.3937C12.2014 8.3937 11.841 9.01923 11.841 9.64476V13.3005H9.90234V4.75684H11.841V7.52257H11.8536C12.4128 6.73734 13.3321 6.62723 13.6801 6.62723C15.3575 6.62723 16.1158 7.87828 16.1158 9.22765V13.3005H14.1894V9.66927C14.1894 8.95783 13.8291 8.3937 13.0339 8.3937Z" fill="black"></path>
<path fill-rule="evenodd" clip-rule="evenodd" d="M6.69922 8.11368C6.69922 7.33523 7.32482 6.69922 8.10696 6.69922C8.90226 6.69922 9.51471 7.33523 9.51471 8.11368C9.51471 8.87903 8.88911 9.51475 8.10696 9.51475C7.33796 9.51475 6.69922 8.87903 6.69922 8.11368Z" fill="black"></path>
<path fill-rule="evenodd" clip-rule="evenodd" d="M4.26953 13.3012H6.30834V6.69922H4.26953V13.3012Z" fill="black"></path>
<path fill-rule="evenodd" clip-rule="evenodd" d="M23.3438 13.7868H25.3081V6.99707H23.3438V13.7868ZM24.3066 3.39844C24.9946 3.39844 25.5326 3.94519 25.5326 4.63198C25.5326 5.30569 24.9946 5.85244 24.3066 5.85244C23.656 5.85244 23.1055 5.30569 23.1055 4.63198C23.1055 3.94519 23.656 3.39844 24.3066 3.39844Z" fill="white"></path>
<path fill-rule="evenodd" clip-rule="evenodd" d="M30.7644 9.98262C30.7644 9.21163 30.3984 8.64615 29.5907 8.64615C28.7578 8.64615 28.3789 9.27593 28.3789 9.98262V13.7862H26.4102V6.9245H28.3662V7.82379H28.3789C28.8966 6.89866 30.0198 6.7959 30.2848 6.7959C32.0015 6.7959 32.7207 8.10652 32.7207 9.5199V13.7862H30.7644V9.98262Z" fill="white"></path>
<path fill-rule="evenodd" clip-rule="evenodd" d="M36.3403 13.9809C34.7618 13.9809 33.8909 13.3596 33.3984 12.4213L34.8503 11.5593C35.09 12.041 35.6202 12.3834 36.3654 12.3834C36.8705 12.3834 37.1861 12.1427 37.1861 11.8889C37.1861 11.6607 37.047 11.4324 36.1127 11.2293C34.863 10.9507 33.7137 10.3803 33.7137 9.03625C33.7137 7.74316 34.9386 6.89355 36.3022 6.89355C37.5899 6.89355 38.4865 7.46421 38.9031 8.26283L37.4763 9.11244C37.2493 8.71935 36.8705 8.46589 36.2517 8.46589C35.8352 8.46589 35.5447 8.69386 35.5447 8.96036C35.5447 9.22657 35.7593 9.44208 36.4283 9.58141C38.0446 9.9238 39.0294 10.5576 39.0294 11.7872C39.0294 13.0554 38.0319 13.9809 36.3403 13.9809Z" fill="white"></path>
<path fill-rule="evenodd" clip-rule="evenodd" d="M41.676 10.8123C41.676 11.5693 42.0168 12.1208 42.8369 12.1208C43.6703 12.1208 44.0487 11.5177 44.0487 10.8123V6.99023H46.0176V13.8393H44.074V12.9929H44.0613C43.3796 13.9934 42.3701 13.9805 42.1809 13.9805C40.5021 13.9805 39.707 12.6978 39.707 11.2867V6.99023H41.676V10.8123Z" fill="white"></path>
<path fill-rule="evenodd" clip-rule="evenodd" d="M51.2601 8.91042C51.1085 8.88504 50.9696 8.87221 50.7923 8.87221C49.4404 8.87221 48.9599 9.77841 48.9599 10.9019V13.7868H46.9883V6.97027H48.9475V8.01675H48.9599C49.2255 7.42963 49.9205 6.89355 50.8682 6.89355C51.0074 6.89355 51.1844 6.91893 51.2601 6.9446V8.91042Z" fill="white"></path>
<path fill-rule="evenodd" clip-rule="evenodd" d="M55.2878 8.69629C54.3725 8.69629 53.6328 9.39985 53.6328 10.4235C53.6328 11.4597 54.3725 12.1758 55.2878 12.1758C56.2031 12.1758 56.9431 11.4597 56.9431 10.4235C56.9431 9.39985 56.2031 8.69629 55.2878 8.69629ZM56.8809 13.0589C56.2286 13.98 55.138 13.98 54.8369 13.98C52.8934 13.98 51.6523 12.2656 51.6523 10.4236C51.6523 8.69636 52.9312 6.89258 54.8621 6.89258C55.2757 6.89258 56.1911 6.96916 56.8809 7.81361H56.8932V7.02061H58.8367V13.8519H56.8932V13.0589H56.8809Z" fill="white"></path>
<path fill-rule="evenodd" clip-rule="evenodd" d="M64.2569 9.98262C64.2569 9.21163 63.8909 8.64615 63.0832 8.64615C62.25 8.64615 61.8714 9.27593 61.8714 9.98262V13.7862H59.9023V6.9245H61.8587V7.82379H61.8714C62.3887 6.89866 63.5123 6.7959 63.777 6.7959C65.4937 6.7959 66.2129 8.10652 66.2129 9.5199V13.7862H64.2569V9.98262Z" fill="white"></path>
<path fill-rule="evenodd" clip-rule="evenodd" d="M79.1784 9.68189C79.1403 9.18742 78.7202 8.50293 77.727 8.50293C76.8356 8.50293 76.3262 9.23841 76.25 9.68189H79.1784ZM76.2006 10.9877C76.3274 11.8373 77.0535 12.319 77.8809 12.319C78.454 12.319 79.0909 12.0148 79.3963 11.5076L80.8349 12.4459C80.2621 13.4727 79.2814 13.98 77.9065 13.98C75.8436 13.98 74.1758 12.5345 74.1758 10.43C74.1758 8.47766 75.8183 6.89258 77.7791 6.89258C79.8036 6.89258 81.166 8.2746 81.166 10.2777C81.166 10.5187 81.166 10.7594 81.1407 10.9877H76.2006Z" fill="white"></path>
<path fill-rule="evenodd" clip-rule="evenodd" d="M70.6384 12.2236C69.6399 12.2236 68.9658 11.4897 68.9658 10.4729C68.9658 9.37837 69.7306 8.73464 70.6255 8.73464C71.4943 8.73464 72.0262 9.27549 72.1816 9.79047L74.0232 9.23684C73.6731 7.66632 72.1041 6.89355 70.6644 6.89355C68.5375 6.89355 66.8906 8.46437 66.8906 10.4984C66.8906 12.5456 68.4342 14.078 70.6126 14.078C72.1041 14.078 73.6341 13.2925 74.075 11.7089L72.2334 11.1549C72.0391 11.683 71.5204 12.2236 70.6384 12.2236Z" fill="white"></path>
</svg>