<svg xmlns="http://www.w3.org/2000/svg" viewBox="0 0 62 62" fill="none" stroke="currentColor" stroke-width="2" stroke-linecap="round" stroke-linejoin="round">
<circle cx="31" cy="31" r="29"></circle>
            <path d="M19.37,29.31H42.79a3.57,3.57,0,0,1,3.57,3.57v7.9a0,0,0,0,1,0,0H15.8a0,0,0,0,1,0,0v-7.9A3.57,3.57,0,0,1,19.37,29.31Z"></path>
            <path d="M18.84,34.41a1.85,1.85 0 1,0 3.7,0a1.85,1.85 0 1,0 -3.7,0"></path>
            <path d="M39.55,34.41a1.85,1.85 0 1,0 3.7,0a1.85,1.85 0 1,0 -3.7,0"></path>
            <path d="M22.25,41.55V43.6a1.74,1.74,0,0,1-1.73,1.73h0a1.74,1.74,0,0,1-1.73-1.73V41.55"></path>
            <path d="M43.16,41.55V43.6a1.74,1.74,0,0,1-1.73,1.73h0A1.74,1.74,0,0,1,39.7,43.6V41.55"></path>
            <path d="M42.38,29.31H19.66l1.7-9.91a2.36,2.36,0,0,1,2.34-2.06H38.3a2.37,2.37,0,0,1,2.35,2.06Z"></path>
</svg>