<svg xmlns="http://www.w3.org/2000/svg" viewBox="0 0 62 62" fill="none" stroke="currentColor" stroke-width="2" stroke-linecap="round" stroke-linejoin="round">
<circle cx="31" cy="31" r="29"></circle>
            <path d="M44.27 25.17c2.2 1.65 3.3 4.09 3.3 5.79 0 3.38-1.8 6.1-4.95 7.96.22 3.57 2.75 6.05 2.75&#xA;                6.05s-4.9-.36-7.64-3.85h-2.81c-2.69 0-5.5-.55-7.7-2.2"></path>
            <path d="M25.51 35.62h2.81c6.99 0 12.65-4.53 12.65-10.16s-5.66-10.19-12.65-10.19-12.65 4.56-12.65&#xA;                10.19c0 3.38 1.8 6.1 4.95 7.96-.22 3.57-2.75 6.05-2.75 6.05s4.9-.36 7.64-3.85z"></path>
</svg>