<svg xmlns="http://www.w3.org/2000/svg" viewBox="0 0 62 62" fill="none" stroke="currentColor" stroke-width="2" stroke-linecap="round" stroke-linejoin="round">
<circle cx="31" cy="31" r="29"></circle>
            <path d="M26.6 37.2s.14-1.58-.72-2.38M35.4 37.2s-.14-1.61.72-2.38M25.88 34.82c-2.85-2.13-4.78-5.07-4.78-8.81 0-5.68 4.43-10.28&#xA;                9.9-10.28M36.12 34.82c2.85-2.13 4.78-5.07 4.78-8.81 0-5.68-4.43-10.28-9.9-10.28M31 46.52c-3.9 0-4.4-3.25-4.4-3.25V37.2M31&#xA;                46.52c3.9 0 4.4-3.25 4.4-3.25V37.2M26.6 38.8s4.42 2.53 8.8 0"></path>
</svg>