<svg xmlns="http://www.w3.org/2000/svg" viewBox="0 0 62 62" fill="none" stroke="currentColor" stroke-width="2" stroke-linecap="round" stroke-linejoin="round">
<circle cx="31" cy="31" r="29"></circle>
            <path d="M48.3 34.4l-6.14 4.72a.38.38 0 0 0-.12.45l1.49 3.64a.92.92 0 0 1-.17.95.8.8 0 0 1-.57.26.75.75&#xA;                0 0 1-.26-.05l-5.4-2.12a.33.33 0 0 0-.32 0 .36.36 0 0 0-.19.26l-.24 1.22a.82.82 0 0 1-.55.64.56.56 0 0&#xA;                1-.2 0 .75.75 0 0 1-.56-.25l-2.3-2.42a2.8 2.8 0 0 0-1.06-.53h-.77a1.93 1.93 0 0 0-1.07.58l-2.3 2.42a.77.77&#xA;                0 0 1-.56.25.66.66 0 0 1-.23 0 .87.87 0 0 1-.56-.65L26 42.56a.36.36 0 0 0-.19-.26.35.35 0 0 0-.33 0L20&#xA;                44.37a.87.87 0 0 1-.28.05.8.8 0 0 1-.57-.26.89.89 0 0 1-.15-.95l1.47-3.64a.37.37 0 0&#xA;                0-.12-.45l-6.12-4.72a.89.89 0 0 1-.29-1 .8.8 0 0 1 .75-.59h1.24a.4.4 0 0 0 .31-.15.43.43 0 0 0&#xA;                .06-.35l-1.64-5.17a.75.75 0 0 1 0-.3 1.11 1.11 0 0 1 .08-.3 1.37 1.37 0 0 1 .15-.21.87.87 0 0 1&#xA;                .2-.15.62.62 0 0 1 .27-.09.81.81 0 0 1 .27 0h.08l4.91 1.73a.39.39 0 0 0 .35-.05.39.39 0 0 0&#xA;                .16-.32V26.1a.86.86 0 0 1 .56-.82.67.67 0 0 1 .24 0 .8.8 0 0 1 .65.35l1.86 2.68a.38.38 0 0 0&#xA;                .68-.33l-2.51-8.4a.94.94 0 0 1 .23-.91.79.79 0 0 1 .54-.22.67.67 0 0 1 .28.06l2.72 1.14a.38.38 0 0 0&#xA;                .47-.14l3.79-6a.77.77 0 0 1 1.32 0l3.79 6a.39.39 0 0 0 .48.14l2.7-1.14a.81.81 0 0 1 .84.16.92.92 0 0 1&#xA;                .22.91l-2.51 8.4a.39.39 0 0 0 .2.46.38.38 0 0 0 .48-.13L40 25.59a.78.78 0 0 1 .64-.35.67.67 0 0 1 .24 0&#xA;                .86.86 0 0 1 .56.82v1.31a.39.39 0 0 0 .16.32.39.39 0 0 0 .35.05l4.92-1.73a.65.65 0 0 1 .19 0 .85.85 0&#xA;                0 1 .77.86.88.88 0 0 1-.07.33l-1.62 5.11a.37.37 0 0 0 .05.34.4.4 0 0 0 .31.16h1.24a.82.82 0 0 1&#xA;                .77.59.91.91 0 0 1-.21 1zm-17.08-9.19v25.3M22.19 33l9 4.31m.12 0l9.12-4.12"></path>
</svg>