<svg xmlns="http://www.w3.org/2000/svg" viewBox="0 0 62 62" fill="none" stroke="currentColor" stroke-width="2" stroke-linecap="round" stroke-linejoin="round">
<circle cx="31" cy="31" r="29"></circle>
            <path d="M48.96 26.52c.69.61 1.13 1.51 1.13 2.5 0 1.84-1.5 3.34-3.34&#xA;                3.34H44.8m0-1.25c0-5.99-4.86-10.85-10.85-10.85h-6.68c-.28 0-.55.01-.82.03a4.801 4.801&#xA;                0 0 0-4.74-4.07v5.57a10.844 10.844 0 0 0-4.99 6.82h-.81c-1.02 0-1.84.83-1.84 1.84v2.99c0&#xA;                1.02.83 1.84 1.84 1.84h.76c.19 0 .38-.03.56-.09.91 2.24 2.55 4.11 4.63 5.31v2.53c0&#xA;                1.02.83 1.84 1.84 1.84h.76c1.02 0 1.84-.83 1.84-1.84v-1.12c.32.03.65.05.97.05h6.68c.52&#xA;                0 1.03-.04 1.53-.11v1.19c0 1.02.83 1.84 1.84 1.84h.76c1.02 0 1.84-.83 1.84-1.84v-2.88c2.94-1.94&#xA;                4.88-5.27 4.88-9.05z"></path>
            <path d="M21.14,27.35a1.53,1.53 0 1,0 3.06,0a1.53,1.53 0 1,0 -3.06,0"></path>
            <path d="M27.82 23.73h6.4"></path>
</svg>