<svg xmlns="http://www.w3.org/2000/svg" viewBox="0 0 62 62" fill="none" stroke="currentColor" stroke-width="2" stroke-linecap="round" stroke-linejoin="round">
<circle cx="31" cy="31" r="29"></circle>
            <path d="M31.86 38.83c-.43-.29-1.13-.29-1.55 0l-7.97&#xA;                5.45c-.43.29-.66.12-.52-.37l2.41-8.51c.14-.5-.04-1.21-.4-1.58l-6.2-6.31c-.36-.37-.24-.71.28-.76l8.2-.77c.52-.05 1.11-.48&#xA;                1.31-.95l3.29-7.6c.21-.48.54-.48.75 0l3.3 7.6c.2.47.8.9 1.31.95l8.2.77c.52.05.64.39.28.76l-6.2 6.31c-.36.37-.54 1.08-.4 1.58l2.4&#xA;                8.51c.14.5-.09.67-.52.37l-7.97-5.45z"></path>
</svg>