<svg xmlns="http://www.w3.org/2000/svg" viewBox="0 0 62 62" fill="none" stroke="currentColor" stroke-width="2" stroke-linecap="round" stroke-linejoin="round">
<circle cx="31" cy="31" r="29"></circle>
            <path d="M20.52 22.47v-3.49c0-1.05.84-1.74 1.87-1.54l21.27 2.79c1.92.28 1.9 1.51 1.9 1.51v1.24"></path>
            <path d="M45.56 22.36v19.7c0 1.04-.86 1.9-1.9 1.9H18.95a1.9 1.9 0 01-1.9-1.9V24.67c0-1.04.86-1.82 1.9-1.82h23.76c1.24 0 2.61-.16 2.81-1.21"></path>
            <path d="M21.96 33.4a1.23 1.23 0 11-2.46 0 1.23 1.23 0 112.46 0z"></path>
</svg>